<svg width="150" height="87" viewBox="0 0 150 87" fill="none" xmlns="http://www.w3.org/2000/svg">
<path d="M126 36.7241C125.464 35.0984 124.956 33.7249 124.562 32.2953C124.308 31.3984 123.8 31.1461 122.926 31.1741C120.162 31.2863 117.369 31.1461 114.634 31.4825C111.898 31.8188 110.036 31.006 108.795 28.5673C108.429 27.8386 107.808 27.1939 107.272 26.5492C106.539 25.6802 106.398 24.8113 106.821 23.7181C108.034 20.6348 109.077 17.4954 110.29 14.3841C110.685 13.375 110.488 12.7583 109.585 12.1697C107.921 11.0485 106.37 9.84319 104.762 8.72198C102.506 7.18033 103.126 7.0682 100.87 8.75001C98.3879 10.6 95.9059 12.422 93.4521 14.328C92.6624 14.9447 91.9009 15.0288 90.9701 14.6924C89.4753 14.1318 87.9805 13.5712 86.4292 13.2348C85.1036 12.9265 84.4831 12.1697 84.1447 10.9364C83.2421 7.79699 82.2268 4.68564 81.3242 1.54626C81.0704 0.649299 80.6191 0.200816 79.6884 0.172786C77.3756 0.144756 75.0911 0.144756 72.8065 0.0326353C71.5373 -0.0234251 70.8322 0.425058 70.4655 1.68641C69.6194 4.7417 68.6041 7.74093 67.7297 10.7962C67.3913 12.0015 66.8272 12.7023 65.5298 12.9826C63.8939 13.347 62.2581 13.8515 60.7068 14.4682C59.6351 14.8886 58.8453 14.6924 57.9992 14.0477C55.2352 11.9455 52.4429 9.89925 49.7071 7.76896C48.9738 7.20836 48.4097 7.20836 47.7046 7.74093C45.7303 9.17047 43.7278 10.572 41.7253 11.9174C40.8791 12.478 40.8509 13.0667 41.1894 13.9356C42.4304 17.1591 43.615 20.4106 44.7149 23.6621C44.9124 24.2507 44.7149 25.1477 44.3765 25.6802C43.3611 27.2499 42.1201 28.6795 41.0766 30.2211C40.4561 31.1181 39.7227 31.4825 38.6228 31.4264C35.1536 31.2863 31.6845 31.2022 28.1871 31.1741C27.7077 31.1741 26.9462 31.3984 26.8051 31.7347C26.1564 33.3044 25.677 34.9302 25.0565 36.7241C25.818 36.7241 26.3257 36.7241 26.8615 36.7241C32.0229 36.7241 37.2126 36.612 42.374 36.7802C44.4047 36.8362 45.7585 36.4438 46.4354 34.4256C46.661 33.7809 47.1687 33.2203 47.5354 32.6597C56.0531 19.5977 73.5116 14.328 87.9241 20.3825C95.3982 23.5219 101.011 28.6234 104.875 35.715C105.101 36.1635 105.721 36.6961 106.144 36.6961C112.659 36.7521 119.203 36.7241 126 36.7241Z" fill="white"/>
<path d="M126 36.7241C119.174 36.7241 112.659 36.7522 106.116 36.6681C105.693 36.6681 105.072 36.1355 104.847 35.687C100.983 28.5954 95.37 23.4939 87.8958 20.3545C73.5116 14.328 56.053 19.5977 47.4789 32.6317C47.084 33.2204 46.5764 33.7529 46.3789 34.3976C45.702 36.4158 44.3482 36.8362 42.3175 36.7522C37.1561 36.584 31.9947 36.6961 26.8051 36.6961C26.2974 36.6961 25.7897 36.6961 25 36.6961C25.5923 34.9302 26.0718 33.2764 26.7487 31.7067C26.8897 31.3704 27.6512 31.1461 28.1307 31.1461C31.5998 31.1742 35.0972 31.2582 38.5663 31.3984C39.6945 31.4545 40.3996 31.0901 41.0201 30.1931C42.0919 28.6514 43.3047 27.2219 44.32 25.6522C44.6585 25.1196 44.8559 24.2227 44.6585 23.634C43.5585 20.3545 42.3457 17.131 41.1329 13.9076C40.7945 13.0386 40.8509 12.45 41.6688 11.8894C43.6995 10.544 45.6738 9.11442 47.6481 7.71291C48.3532 7.20837 48.9173 7.18034 49.6506 7.74094C52.3865 9.87123 55.2069 11.9174 57.9427 14.0197C58.7889 14.6644 59.5786 14.8886 60.6504 14.4401C62.2016 13.8235 63.8375 13.3189 65.4733 12.9546C66.7707 12.6742 67.3348 11.9735 67.6733 10.7682C68.5194 7.71291 69.5348 4.71369 70.4091 1.6584C70.7757 0.397042 71.4809 -0.0514402 72.7501 0.00462013C75.0346 0.116741 77.3474 0.116741 79.6319 0.144771C80.5909 0.144771 81.0139 0.593253 81.2678 1.51825C82.1703 4.65763 83.1857 7.76897 84.0882 10.9083C84.4267 12.1417 85.0472 12.8985 86.3728 13.2068C87.924 13.5712 89.4189 14.1038 90.9137 14.6644C91.8444 15.0288 92.6059 14.9167 93.3957 14.3C95.8495 12.422 98.3314 10.572 100.813 8.722C103.07 7.04019 102.477 7.15231 104.706 8.69397C106.313 9.81517 107.893 11.0205 109.529 12.0856C110.431 12.6742 110.629 13.2909 110.234 14.3C109.049 17.3833 107.977 20.5227 106.765 23.634C106.341 24.7272 106.483 25.5962 107.216 26.4651C107.752 27.1098 108.344 27.7545 108.739 28.4833C109.98 30.9219 111.841 31.7348 114.577 31.3984C117.313 31.062 120.105 31.2022 122.869 31.0901C123.744 31.062 124.251 31.3423 124.505 32.2113C124.985 33.7249 125.492 35.0984 126 36.7241Z" fill="#FF3811"/>
<path d="M97.3443 46.1983C94.0161 42.9187 90.6598 39.6112 87.3035 36.2756C86.7112 35.687 86.3445 36.0794 85.9215 36.4998C84.342 38.0976 82.7626 39.6953 81.1549 41.2369C80.1396 42.218 79.0396 43.171 77.9678 44.124C78.0524 44.2642 78.1371 44.3763 78.2217 44.5165C81.3524 43.8998 84.0882 44.5445 86.3445 46.7589C88.5727 48.9733 89.165 51.7482 88.6009 54.7475C91.5342 51.8884 94.3828 49.0854 97.3443 46.1983Z" fill="white"/>
<path d="M73.0321 44.3483C72.609 43.8718 72.4116 43.5634 72.1577 43.3112C69.9014 41.0688 67.5886 38.8824 65.3887 36.5839C64.599 35.7711 64.1195 35.7991 63.358 36.5839C60.4247 39.5551 57.4915 42.4703 54.4736 45.3574C53.7121 46.0862 53.8813 46.5346 54.53 47.1793C56.8992 49.5058 59.2401 51.8604 61.6093 54.1869C61.8067 54.3831 62.0888 54.4952 62.4272 54.7194C61.4401 47.9922 66.1784 43.3672 73.0321 44.3483Z" fill="white"/>
<path d="M62.0606 33.3604C58.4786 36.9763 55.0095 40.5081 51.5685 43.9838C51.8224 44.3202 52.1608 44.7967 52.4711 45.1891C56.1095 41.5732 59.6068 38.1255 63.3298 34.4536C62.9349 34.1172 62.4836 33.7248 62.0606 33.3604Z" fill="white"/>
<path d="M102.083 41.5733C101.998 41.4332 101.942 41.265 101.829 41.1249C98.6417 37.9575 95.4828 34.8181 92.2957 31.6507C91.7599 31.1181 91.365 31.0901 90.7727 31.6507C90.1522 32.2673 90.265 32.6878 90.8291 33.2484C93.6778 36.0234 96.47 38.8264 99.2904 41.6294C99.7417 42.0779 100.221 42.4983 100.87 43.115C101.293 42.5824 101.631 42.162 102.083 41.5733Z" fill="white"/>
<path d="M99.8263 43.8157C96.5546 40.5642 93.3393 37.3968 90.124 34.1733C89.5881 33.6408 89.1368 33.2203 88.4035 34.0052C87.6984 34.762 88.0933 35.2105 88.6574 35.743C91.5342 38.5741 94.3829 41.4051 97.2315 44.2362C98.5007 45.5255 98.5289 45.5255 99.8263 43.8157Z" fill="white"/>
<path d="M60.876 32.3233C59.6068 30.7817 59.635 30.7817 58.2812 32.0991C55.5172 34.846 52.7532 37.565 50.0173 40.3119C48.6917 41.6293 48.7199 41.7975 50.2994 42.6945C53.8249 39.2468 57.3223 35.7991 60.876 32.3233Z" fill="white"/>
<path d="M97.3443 46.1983C94.3828 49.1134 91.5342 51.8884 88.6009 54.7755C89.165 51.7763 88.5727 49.0293 86.3445 46.7869C84.0882 44.5445 81.3242 43.9278 78.2217 44.5445C78.1371 44.4043 78.0524 44.2922 77.9678 44.1521C79.0396 43.199 80.1114 42.274 81.1549 41.265C82.7626 39.6953 84.342 38.1256 85.9215 36.5279C86.3445 36.1074 86.7112 35.715 87.3035 36.3036C90.6598 39.5831 94.0161 42.8907 97.3443 46.1983ZM89.6445 41.6574C89.0522 42.4422 88.3471 42.9748 88.4035 43.3672C88.4881 43.8437 89.2214 44.2361 89.6727 44.6566C90.0675 44.2361 90.7444 43.8157 90.7726 43.3672C90.829 42.9187 90.2085 42.4142 89.6445 41.6574Z" fill="#444444"/>
<path d="M73.0321 44.3483C66.1502 43.3672 61.4401 47.9922 62.4272 54.7475C62.0888 54.5232 61.8067 54.4111 61.6093 54.2149C59.2401 51.8884 56.8992 49.5338 54.53 47.2073C53.8813 46.5627 53.7121 46.1142 54.4736 45.3854C57.4633 42.4983 60.4247 39.5551 63.358 36.6119C64.1195 35.8271 64.599 35.7991 65.3887 36.6119C67.5886 38.9104 69.9014 41.0968 72.1577 43.3392C72.4116 43.5634 72.6372 43.8718 73.0321 44.3483ZM63.1887 43.4513C62.399 42.8066 61.8913 42.1059 61.5247 42.1619C61.017 42.246 60.5939 42.9468 60.1427 43.3672C60.5657 43.7877 60.9324 44.4604 61.4119 44.5445C61.8067 44.6005 62.3426 43.9839 63.1887 43.4513Z" fill="#444444"/>
<path d="M62.0606 33.3604C62.4836 33.7248 62.9349 34.0892 63.3298 34.4536C59.635 38.1255 56.1377 41.5732 52.4711 45.1891C52.1608 44.7687 51.7942 44.2922 51.5685 43.9838C55.0095 40.5081 58.5068 36.9763 62.0606 33.3604Z" fill="#444444"/>
<path d="M102.083 41.5733C101.631 42.162 101.293 42.5824 100.87 43.143C100.221 42.5264 99.7417 42.1059 99.2904 41.6574C96.47 38.8544 93.6777 36.0514 90.8291 33.2764C90.2368 32.7158 90.124 32.2953 90.7727 31.6787C91.3368 31.1181 91.7598 31.1461 92.2957 31.6787C95.4546 34.8461 98.6417 37.9855 101.829 41.1529C101.942 41.237 101.998 41.4332 102.083 41.5733Z" fill="#444444"/>
<path d="M99.8263 43.8157C98.5571 45.5255 98.5289 45.5255 97.2315 44.2362C94.3829 41.4051 91.5342 38.546 88.6574 35.743C88.0933 35.2105 87.6984 34.762 88.4035 34.0052C89.1368 33.2203 89.5881 33.6408 90.124 34.1733C93.3393 37.3968 96.5546 40.5642 99.8263 43.8157Z" fill="#444444"/>
<path d="M60.876 32.3233C57.3223 35.8271 53.8249 39.2468 50.2994 42.7225C48.7199 41.8255 48.6917 41.6574 50.0173 40.3399C52.7814 37.593 55.5454 34.8741 58.2812 32.1271C59.635 30.7817 59.635 30.7817 60.876 32.3233Z" fill="#444444"/>
<path d="M89.6445 41.6574C90.1804 42.4423 90.8009 42.9188 90.7727 43.3673C90.7445 43.8157 90.0676 44.2362 89.6727 44.6566C89.2214 44.2362 88.4881 43.8718 88.4035 43.3673C88.3471 42.9748 89.0522 42.4423 89.6445 41.6574Z" fill="white"/>
<path d="M63.1888 43.4513C62.3426 43.9839 61.835 44.6006 61.3837 44.5165C60.9042 44.4604 60.5376 43.7597 60.1145 43.3392C60.5658 42.9187 60.9888 42.218 61.4965 42.1339C61.8914 42.1059 62.3991 42.8347 63.1888 43.4513Z" fill="white"/>
<path d="M10.2637 76.8107C10.2637 77.657 10.0586 78.3927 9.64844 79.0177C9.23828 79.6427 8.63932 80.1245 7.85156 80.463C7.07031 80.8016 6.11979 80.9708 5 80.9708C4.50521 80.9708 4.02018 80.9383 3.54492 80.8732C3.07617 80.8081 2.6237 80.7137 2.1875 80.59C1.75781 80.4598 1.34766 80.3003 0.957031 80.1115V77.299C1.63411 77.5984 2.33724 77.8686 3.06641 78.1095C3.79557 78.3504 4.51823 78.4708 5.23438 78.4708C5.72917 78.4708 6.1263 78.4057 6.42578 78.2755C6.73177 78.1453 6.95312 77.9663 7.08984 77.7384C7.22656 77.5105 7.29492 77.2501 7.29492 76.9572C7.29492 76.5991 7.17448 76.2931 6.93359 76.0392C6.69271 75.7853 6.36068 75.5476 5.9375 75.3263C5.52083 75.1049 5.04883 74.8673 4.52148 74.6134C4.18945 74.4572 3.82812 74.2684 3.4375 74.047C3.04688 73.8191 2.67578 73.5424 2.32422 73.2169C1.97266 72.8914 1.68294 72.4975 1.45508 72.0353C1.23372 71.5665 1.12305 71.0066 1.12305 70.3556C1.12305 69.5027 1.31836 68.7736 1.70898 68.1681C2.09961 67.5626 2.65625 67.1004 3.37891 66.7814C4.10807 66.4559 4.96745 66.2931 5.95703 66.2931C6.69922 66.2931 7.4056 66.381 8.07617 66.5568C8.75326 66.726 9.45964 66.9734 10.1953 67.299L9.21875 69.6525C8.5612 69.3855 7.97201 69.1805 7.45117 69.0372C6.93034 68.8875 6.39974 68.8126 5.85938 68.8126C5.48177 68.8126 5.15951 68.8745 4.89258 68.9982C4.62565 69.1154 4.42383 69.2846 4.28711 69.506C4.15039 69.7208 4.08203 69.9715 4.08203 70.2579C4.08203 70.5965 4.17969 70.8829 4.375 71.1173C4.57682 71.3452 4.8763 71.5665 5.27344 71.7814C5.67708 71.9962 6.17839 72.2469 6.77734 72.5333C7.50651 72.8784 8.12826 73.2397 8.64258 73.6173C9.16341 73.9884 9.5638 74.4279 9.84375 74.9357C10.1237 75.437 10.2637 76.062 10.2637 76.8107ZM18.8184 69.6525C19.9837 69.6525 20.9212 69.9715 21.6309 70.6095C22.3405 71.241 22.6953 72.2566 22.6953 73.6564V80.7755H19.7168V74.3986C19.7168 73.6173 19.5736 73.0281 19.2871 72.631C19.0072 72.2338 18.5645 72.0353 17.959 72.0353C17.0475 72.0353 16.4258 72.3445 16.0938 72.963C15.7617 73.5815 15.5957 74.4734 15.5957 75.6388V80.7755H12.6172V69.8575H14.8926L15.293 71.254H15.459C15.6934 70.8764 15.9831 70.5704 16.3281 70.3361C16.6797 70.1017 17.0671 69.9292 17.4902 69.8185C17.9199 69.7078 18.3626 69.6525 18.8184 69.6525ZM35.6836 75.297C35.6836 76.2085 35.5599 77.0157 35.3125 77.7189C35.0716 78.422 34.7168 79.0177 34.248 79.506C33.7858 79.9878 33.2259 80.3523 32.5684 80.5997C31.9173 80.8471 31.1816 80.9708 30.3613 80.9708C29.5931 80.9708 28.8867 80.8471 28.2422 80.5997C27.6042 80.3523 27.0475 79.9878 26.5723 79.506C26.1035 79.0177 25.7389 78.422 25.4785 77.7189C25.2246 77.0157 25.0977 76.2085 25.0977 75.297C25.0977 74.0861 25.3125 73.0607 25.7422 72.2208C26.1719 71.381 26.7839 70.743 27.5781 70.3068C28.3724 69.8706 29.3197 69.6525 30.4199 69.6525C31.4421 69.6525 32.347 69.8706 33.1348 70.3068C33.929 70.743 34.5508 71.381 35 72.2208C35.4557 73.0607 35.6836 74.0861 35.6836 75.297ZM28.1348 75.297C28.1348 76.0131 28.2129 76.6154 28.3691 77.1036C28.5254 77.5919 28.7695 77.9598 29.1016 78.2072C29.4336 78.4545 29.8665 78.5782 30.4004 78.5782C30.9277 78.5782 31.3542 78.4545 31.6797 78.2072C32.0117 77.9598 32.2526 77.5919 32.4023 77.1036C32.5586 76.6154 32.6367 76.0131 32.6367 75.297C32.6367 74.5743 32.5586 73.9754 32.4023 73.5001C32.2526 73.0184 32.0117 72.657 31.6797 72.4161C31.3477 72.1753 30.9147 72.0548 30.3809 72.0548C29.5931 72.0548 29.0202 72.325 28.6621 72.8654C28.3105 73.4057 28.1348 74.2163 28.1348 75.297ZM47.1191 80.7755L46.2793 76.9572C46.2337 76.7293 46.1589 76.394 46.0547 75.9513C45.9505 75.5021 45.8366 75.0236 45.7129 74.5157C45.5957 74.0014 45.485 73.5262 45.3809 73.09C45.2832 72.6538 45.2116 72.3348 45.166 72.1329H45.0781C45.0326 72.3348 44.9609 72.6538 44.8633 73.09C44.7656 73.5262 44.6549 74.0014 44.5312 74.5157C44.4141 75.0301 44.3034 75.5151 44.1992 75.9708C44.0951 76.42 44.0169 76.7618 43.9648 76.9962L43.0859 80.7755H39.8828L36.7773 69.8575H39.7461L41.0059 74.6915C41.0905 75.0301 41.1719 75.4337 41.25 75.9025C41.3281 76.3647 41.3965 76.8139 41.4551 77.2501C41.5202 77.6798 41.569 78.0216 41.6016 78.2755H41.6797C41.6927 78.0867 41.7188 77.8361 41.7578 77.5236C41.8034 77.2111 41.8522 76.8888 41.9043 76.5568C41.9629 76.2182 42.015 75.9155 42.0605 75.6486C42.1126 75.3751 42.1517 75.1896 42.1777 75.0919L43.5254 69.8575H46.8066L48.0859 75.0919C48.1315 75.2807 48.1901 75.5802 48.2617 75.9904C48.3398 76.4005 48.4082 76.8237 48.4668 77.2599C48.5254 77.6896 48.5579 78.0281 48.5645 78.2755H48.6426C48.6686 78.0542 48.7142 77.7254 48.7793 77.2892C48.8444 76.853 48.9193 76.3973 49.0039 75.922C49.0951 75.4402 49.1862 75.0301 49.2773 74.6915L50.5859 69.8575H53.5059L50.3613 80.7755H47.1191ZM53.7109 69.8575H56.9727L59.0332 76.0001C59.0983 76.1954 59.1536 76.394 59.1992 76.5958C59.2448 76.7976 59.2839 77.006 59.3164 77.2208C59.349 77.4357 59.375 77.6603 59.3945 77.8947H59.4531C59.4922 77.5431 59.5443 77.2143 59.6094 76.9083C59.681 76.6023 59.7689 76.2996 59.873 76.0001L61.8945 69.8575H65.0879L60.4688 82.172C60.1888 82.9272 59.8242 83.5555 59.375 84.0568C58.9258 84.5646 58.4082 84.9454 57.8223 85.1993C57.2428 85.4532 56.6048 85.5802 55.9082 85.5802C55.5697 85.5802 55.2767 85.5607 55.0293 85.5216C54.7819 85.4891 54.5703 85.4532 54.3945 85.4142V83.0509C54.5312 83.0835 54.7038 83.1128 54.9121 83.1388C55.1204 83.1648 55.3385 83.1779 55.5664 83.1779C55.9831 83.1779 56.3411 83.09 56.6406 82.9142C56.9401 82.7384 57.1908 82.5008 57.3926 82.2013C57.5944 81.9083 57.7539 81.5861 57.8711 81.2345L58.0469 80.6974L53.7109 69.8575ZM78.1543 68.8126C77.5749 68.8126 77.0605 68.9266 76.6113 69.1544C76.1686 69.3758 75.7943 69.698 75.4883 70.1212C75.1888 70.5444 74.9609 71.0555 74.8047 71.6544C74.6484 72.2534 74.5703 72.9272 74.5703 73.6759C74.5703 74.685 74.694 75.5476 74.9414 76.2638C75.1953 76.9734 75.5859 77.517 76.1133 77.8947C76.6406 78.2657 77.321 78.4513 78.1543 78.4513C78.7337 78.4513 79.3132 78.3862 79.8926 78.256C80.4785 78.1258 81.1133 77.9402 81.7969 77.6993V80.2384C81.1654 80.4988 80.5436 80.6844 79.9316 80.795C79.3197 80.9122 78.6328 80.9708 77.8711 80.9708C76.3997 80.9708 75.1888 80.6681 74.2383 80.0626C73.2943 79.4506 72.5944 78.5978 72.1387 77.504C71.6829 76.4038 71.4551 75.1212 71.4551 73.6564C71.4551 72.5756 71.6016 71.5861 71.8945 70.6876C72.1875 69.7892 72.6172 69.0112 73.1836 68.3536C73.75 67.6961 74.4499 67.1883 75.2832 66.8302C76.1165 66.4721 77.0736 66.2931 78.1543 66.2931C78.8639 66.2931 79.5736 66.3842 80.2832 66.5665C80.9993 66.7423 81.6829 66.9865 82.334 67.299L81.3574 69.7599C80.8236 69.506 80.2865 69.2846 79.7461 69.0958C79.2057 68.907 78.6751 68.8126 78.1543 68.8126ZM89.082 69.6329C90.5469 69.6329 91.6699 69.9519 92.4512 70.59C93.2324 71.228 93.623 72.198 93.623 73.5001V80.7755H91.543L90.9668 79.2911H90.8887C90.5762 79.6818 90.2572 80.0008 89.9316 80.2482C89.6061 80.4956 89.2318 80.6779 88.8086 80.795C88.3854 80.9122 87.8711 80.9708 87.2656 80.9708C86.6211 80.9708 86.0417 80.8471 85.5273 80.5997C85.0195 80.3523 84.6191 79.9747 84.3262 79.4669C84.0332 78.9526 83.8867 78.3016 83.8867 77.5138C83.8867 76.3549 84.2936 75.5021 85.1074 74.9552C85.9212 74.4018 87.1419 74.0958 88.7695 74.0372L90.6641 73.9786V73.5001C90.6641 72.9272 90.5143 72.5073 90.2148 72.2404C89.9154 71.9734 89.4987 71.84 88.9648 71.84C88.4375 71.84 87.9199 71.9148 87.4121 72.0646C86.9043 72.2143 86.3965 72.4031 85.8887 72.631L84.9023 70.6193C85.4818 70.3133 86.1296 70.0724 86.8457 69.8966C87.5684 69.7208 88.3138 69.6329 89.082 69.6329ZM90.6641 75.7169L89.5117 75.756C88.5482 75.782 87.8776 75.9545 87.5 76.2736C87.1289 76.5926 86.9434 77.0125 86.9434 77.5333C86.9434 77.9891 87.0768 78.3146 87.3438 78.5099C87.6107 78.6987 87.959 78.7931 88.3887 78.7931C89.0267 78.7931 89.5638 78.6043 90 78.2267C90.4427 77.8491 90.6641 77.312 90.6641 76.6154V75.7169ZM102.793 69.6525C102.943 69.6525 103.115 69.6622 103.311 69.6818C103.512 69.6948 103.675 69.7143 103.799 69.7404L103.574 72.5333C103.477 72.5008 103.337 72.478 103.154 72.465C102.979 72.4454 102.826 72.4357 102.695 72.4357C102.311 72.4357 101.937 72.4845 101.572 72.5822C101.214 72.6798 100.892 72.8393 100.605 73.0607C100.319 73.2755 100.091 73.562 99.9219 73.92C99.7591 74.2716 99.6777 74.7045 99.6777 75.2189V80.7755H96.6992V69.8575H98.9551L99.3945 71.6935H99.541C99.7559 71.3224 100.023 70.9838 100.342 70.6779C100.667 70.3654 101.035 70.118 101.445 69.9357C101.862 69.7469 102.311 69.6525 102.793 69.6525ZM112.08 68.8126C111.501 68.8126 110.986 68.9266 110.537 69.1544C110.094 69.3758 109.72 69.698 109.414 70.1212C109.115 70.5444 108.887 71.0555 108.73 71.6544C108.574 72.2534 108.496 72.9272 108.496 73.6759C108.496 74.685 108.62 75.5476 108.867 76.2638C109.121 76.9734 109.512 77.517 110.039 77.8947C110.566 78.2657 111.247 78.4513 112.08 78.4513C112.66 78.4513 113.239 78.3862 113.818 78.256C114.404 78.1258 115.039 77.9402 115.723 77.6993V80.2384C115.091 80.4988 114.469 80.6844 113.857 80.795C113.245 80.9122 112.559 80.9708 111.797 80.9708C110.326 80.9708 109.115 80.6681 108.164 80.0626C107.22 79.4506 106.52 78.5978 106.064 77.504C105.609 76.4038 105.381 75.1212 105.381 73.6564C105.381 72.5756 105.527 71.5861 105.82 70.6876C106.113 69.7892 106.543 69.0112 107.109 68.3536C107.676 67.6961 108.376 67.1883 109.209 66.8302C110.042 66.4721 110.999 66.2931 112.08 66.2931C112.79 66.2931 113.499 66.3842 114.209 66.5665C114.925 66.7423 115.609 66.9865 116.26 67.299L115.283 69.7599C114.749 69.506 114.212 69.2846 113.672 69.0958C113.132 68.907 112.601 68.8126 112.08 68.8126ZM123.008 69.6329C124.473 69.6329 125.596 69.9519 126.377 70.59C127.158 71.228 127.549 72.198 127.549 73.5001V80.7755H125.469L124.893 79.2911H124.814C124.502 79.6818 124.183 80.0008 123.857 80.2482C123.532 80.4956 123.158 80.6779 122.734 80.795C122.311 80.9122 121.797 80.9708 121.191 80.9708C120.547 80.9708 119.967 80.8471 119.453 80.5997C118.945 80.3523 118.545 79.9747 118.252 79.4669C117.959 78.9526 117.812 78.3016 117.812 77.5138C117.812 76.3549 118.219 75.5021 119.033 74.9552C119.847 74.4018 121.068 74.0958 122.695 74.0372L124.59 73.9786V73.5001C124.59 72.9272 124.44 72.5073 124.141 72.2404C123.841 71.9734 123.424 71.84 122.891 71.84C122.363 71.84 121.846 71.9148 121.338 72.0646C120.83 72.2143 120.322 72.4031 119.814 72.631L118.828 70.6193C119.408 70.3133 120.055 70.0724 120.771 69.8966C121.494 69.7208 122.24 69.6329 123.008 69.6329ZM124.59 75.7169L123.438 75.756C122.474 75.782 121.803 75.9545 121.426 76.2736C121.055 76.5926 120.869 77.0125 120.869 77.5333C120.869 77.9891 121.003 78.3146 121.27 78.5099C121.536 78.6987 121.885 78.7931 122.314 78.7931C122.952 78.7931 123.49 78.6043 123.926 78.2267C124.368 77.8491 124.59 77.312 124.59 76.6154V75.7169ZM136.719 69.6525C136.868 69.6525 137.041 69.6622 137.236 69.6818C137.438 69.6948 137.601 69.7143 137.725 69.7404L137.5 72.5333C137.402 72.5008 137.262 72.478 137.08 72.465C136.904 72.4454 136.751 72.4357 136.621 72.4357C136.237 72.4357 135.863 72.4845 135.498 72.5822C135.14 72.6798 134.818 72.8393 134.531 73.0607C134.245 73.2755 134.017 73.562 133.848 73.92C133.685 74.2716 133.604 74.7045 133.604 75.2189V80.7755H130.625V69.8575H132.881L133.32 71.6935H133.467C133.682 71.3224 133.949 70.9838 134.268 70.6779C134.593 70.3654 134.961 70.118 135.371 69.9357C135.788 69.7469 136.237 69.6525 136.719 69.6525ZM144.209 69.6525C145.218 69.6525 146.087 69.8478 146.816 70.2384C147.546 70.6225 148.109 71.1824 148.506 71.9181C148.903 72.6538 149.102 73.5522 149.102 74.6134V76.0587H142.061C142.093 76.8986 142.344 77.5594 142.812 78.0411C143.288 78.5164 143.945 78.754 144.785 78.754C145.482 78.754 146.12 78.6824 146.699 78.5392C147.279 78.396 147.874 78.1811 148.486 77.8947V80.1993C147.946 80.4663 147.38 80.6616 146.787 80.7853C146.201 80.909 145.488 80.9708 144.648 80.9708C143.555 80.9708 142.585 80.769 141.738 80.3654C140.898 79.9617 140.238 79.3465 139.756 78.5197C139.281 77.6928 139.043 76.6512 139.043 75.3947C139.043 74.1186 139.258 73.0574 139.688 72.2111C140.124 71.3582 140.729 70.7202 141.504 70.297C142.279 69.8673 143.18 69.6525 144.209 69.6525ZM144.229 71.7716C143.649 71.7716 143.167 71.9572 142.783 72.3282C142.406 72.6993 142.188 73.282 142.129 74.0763H146.309C146.302 73.6336 146.221 73.2397 146.064 72.8947C145.915 72.5496 145.687 72.2762 145.381 72.0743C145.081 71.8725 144.697 71.7716 144.229 71.7716Z" fill="#444444"/>
</svg>
