<svg width="120" height="65" viewBox="0 0 120 65" fill="none" xmlns="http://www.w3.org/2000/svg">
<path d="M97.7036 27.0852C97.3084 25.8861 96.934 24.8731 96.6428 23.8188C96.4555 23.1573 96.0811 22.9712 95.4363 22.9919C93.3977 23.0746 91.3383 22.9712 89.3205 23.2193C87.3028 23.4674 85.9299 22.8678 85.0146 21.0693C84.7442 20.5318 84.2865 20.0563 83.8913 19.5808C83.3504 18.9399 83.2464 18.299 83.5585 17.4928C84.4529 15.2187 85.2226 12.9033 86.1171 10.6086C86.4083 9.86437 86.2627 9.40956 85.597 8.97542C84.3697 8.14849 83.2256 7.25955 82.0399 6.43262C80.3758 5.29559 80.8334 5.2129 79.1693 6.45329C77.3387 7.81772 75.5082 9.16148 73.6984 10.5673C73.116 11.0221 72.5543 11.0841 71.8679 10.836C70.7654 10.4225 69.6629 10.0091 68.5188 9.76101C67.5411 9.5336 67.0835 8.97542 66.8339 8.0658C66.1682 5.7504 65.4193 3.45567 64.7537 1.14027C64.5665 0.478726 64.2336 0.147955 63.5472 0.127281C61.8414 0.106608 60.1565 0.106608 58.4716 0.0239153C57.5355 -0.0174311 57.0154 0.313341 56.745 1.24364C56.121 3.49702 55.3721 5.70905 54.7272 7.96244C54.4776 8.85138 54.0616 9.36821 53.1047 9.57495C51.8982 9.8437 50.6917 10.2158 49.5476 10.6706C48.7571 10.9807 48.1747 10.836 47.5506 10.3605C45.5121 8.81004 43.4527 7.30089 41.4349 5.72973C40.8941 5.31626 40.4781 5.31626 39.958 5.70905C38.5019 6.76339 37.025 7.79705 35.548 8.78936C34.924 9.20283 34.9032 9.63697 35.1528 10.2778C36.0681 12.6553 36.9418 15.0534 37.753 17.4514C37.8986 17.8856 37.753 18.5471 37.5034 18.9399C36.7545 20.0976 35.8393 21.152 35.0696 22.289C34.612 22.9505 34.0711 23.2193 33.2598 23.1779C30.7012 23.0746 28.1426 23.0125 25.5632 22.9919C25.2096 22.9919 24.6479 23.1573 24.5439 23.4053C24.0655 24.563 23.7118 25.7621 23.2542 27.0852C23.8159 27.0852 24.1903 27.0852 24.5855 27.0852C28.3922 27.0852 32.2198 27.0025 36.0265 27.1265C37.5242 27.1679 38.5227 26.8784 39.0219 25.39C39.1883 24.9145 39.5628 24.501 39.8332 24.0876C46.1153 14.4538 58.9916 10.5673 69.6213 15.0327C75.1338 17.3481 79.2733 21.1106 82.1231 26.3409C82.2896 26.6717 82.7472 27.0645 83.0592 27.0645C87.8644 27.1058 92.6904 27.0852 97.7036 27.0852Z" fill="white"/>
<path d="M97.7036 27.0853C92.6696 27.0853 87.8644 27.106 83.0384 27.044C82.7264 27.044 82.2687 26.6512 82.1023 26.3204C79.2525 21.0901 75.1129 17.3276 69.6005 15.0122C58.9916 10.5674 46.1153 14.454 39.7916 24.067C39.5003 24.5012 39.1259 24.894 38.9803 25.3695C38.4811 26.8579 37.4826 27.168 35.9849 27.106C32.1781 26.982 28.3714 27.0647 24.5439 27.0647C24.1695 27.0647 23.795 27.0647 23.2126 27.0647C23.6494 25.7622 24.0031 24.5425 24.5023 23.3848C24.6063 23.1367 25.1679 22.9714 25.5216 22.9714C28.0802 22.992 30.6596 23.0541 33.2182 23.1574C34.0503 23.1988 34.5703 22.93 35.028 22.2685C35.8184 21.1314 36.7129 20.0771 37.4618 18.9194C37.7114 18.5266 37.857 17.8651 37.7114 17.4309C36.9001 15.0122 36.0057 12.6347 35.1112 10.2573C34.8616 9.61646 34.9032 9.18232 35.5064 8.76886C37.0041 7.77654 38.4603 6.72221 39.9164 5.68854C40.4364 5.31643 40.8525 5.29575 41.3933 5.70922C43.4111 7.28038 45.4913 8.78953 47.509 10.34C48.1331 10.8155 48.7155 10.9809 49.506 10.6501C50.6501 10.1953 51.8566 9.82319 53.0631 9.55444C54.02 9.3477 54.436 8.83087 54.6856 7.94193C55.3097 5.68854 56.0585 3.47651 56.7034 1.22313C56.9738 0.292833 57.4939 -0.0379389 58.4299 0.0034075C60.1149 0.0861004 61.8206 0.0861004 63.5056 0.106774C64.2128 0.106774 64.5248 0.437545 64.7121 1.11976C65.3777 3.43516 66.1266 5.72989 66.7922 8.04529C67.0419 8.95491 67.4995 9.51309 68.4772 9.7405C69.6213 10.0092 70.7238 10.402 71.8263 10.8155C72.5127 11.0843 73.0744 11.0016 73.6568 10.5468C75.4666 9.16165 77.2971 7.79721 79.1277 6.43278C80.7918 5.19239 80.355 5.27508 81.9983 6.41211C83.184 7.23904 84.3489 8.12799 85.5554 8.91357C86.2211 9.34771 86.3667 9.80252 86.0754 10.5468C85.2018 12.8208 84.4113 15.1362 83.5168 17.4309C83.2048 18.2372 83.3088 18.8781 83.8497 19.5189C84.2449 19.9944 84.6817 20.4699 84.973 21.0074C85.8882 22.806 87.2611 23.4055 89.2789 23.1574C91.2967 22.9093 93.3561 23.0127 95.3946 22.93C96.0395 22.9093 96.4139 23.1161 96.6011 23.7569C96.9548 24.8733 97.3292 25.8863 97.7036 27.0853Z" fill="#FF3811"/>
<path d="M76.5691 34.0729C74.1145 31.6541 71.639 29.2147 69.1636 26.7546C68.7268 26.3204 68.4564 26.6098 68.1444 26.9199C66.9795 28.0983 65.8146 29.2767 64.6289 30.4137C63.88 31.1373 63.0687 31.8402 62.2783 32.5431C62.3407 32.6464 62.4031 32.7291 62.4655 32.8325C64.7745 32.3777 66.7922 32.8532 68.4564 34.4863C70.0997 36.1195 70.5366 38.1662 70.1205 40.3782C72.2839 38.2695 74.3849 36.2022 76.5691 34.0729Z" fill="white"/>
<path d="M58.638 32.7085C58.326 32.357 58.1803 32.1296 57.9931 31.9435C56.329 30.2897 54.6233 28.6772 53.0007 26.982C52.4183 26.3824 52.0646 26.4031 51.503 26.982C49.3396 29.1733 47.1762 31.3233 44.9504 33.4527C44.3888 33.9902 44.5136 34.321 44.992 34.7964C46.7394 36.5123 48.4659 38.2489 50.2133 39.9648C50.3589 40.1095 50.5669 40.1922 50.8165 40.3575C50.0885 35.396 53.5832 31.9849 58.638 32.7085Z" fill="white"/>
<path d="M50.5461 24.6045C47.9043 27.2713 45.3457 29.8762 42.8079 32.4396C42.9951 32.6877 43.2447 33.0392 43.4735 33.3286C46.1569 30.6617 48.7364 28.1189 51.4822 25.4107C51.191 25.1627 50.8581 24.8732 50.5461 24.6045Z" fill="white"/>
<path d="M80.0638 30.6617C80.0014 30.5584 79.9598 30.4343 79.8766 30.331C77.526 27.9949 75.1962 25.6795 72.8456 23.3434C72.4504 22.9506 72.1591 22.9299 71.7223 23.3434C71.2647 23.7982 71.3479 24.1083 71.7639 24.5218C73.8649 26.5684 75.9243 28.6358 78.0044 30.7031C78.3373 31.0339 78.6909 31.3439 79.1693 31.7988C79.4814 31.406 79.731 31.0959 80.0638 30.6617Z" fill="white"/>
<path d="M78.3997 32.3154C75.9866 29.9173 73.6153 27.5813 71.2439 25.2038C70.8486 24.811 70.5158 24.5009 69.9749 25.0798C69.4549 25.638 69.7461 25.9687 70.1622 26.3615C72.2839 28.4495 74.3849 30.5375 76.4859 32.6255C77.422 33.5765 77.4428 33.5765 78.3997 32.3154Z" fill="white"/>
<path d="M49.6725 23.8395C48.7364 22.7025 48.7572 22.7025 47.7587 23.6741C45.7201 25.7001 43.6816 27.7054 41.6638 29.7314C40.6861 30.703 40.7069 30.8271 41.8718 31.4886C44.472 28.9458 47.0514 26.403 49.6725 23.8395Z" fill="white"/>
<path d="M76.5691 34.0727C74.3849 36.2227 72.2839 38.2694 70.1205 40.3987C70.5366 38.1867 70.0997 36.1607 68.4564 34.5068C66.7922 32.853 64.7537 32.3982 62.4655 32.853C62.4031 32.7496 62.3407 32.6669 62.2783 32.5636C63.0687 31.8607 63.8592 31.1785 64.6289 30.4342C65.8146 29.2765 66.9795 28.1188 68.1444 26.9404C68.4564 26.6303 68.7268 26.3409 69.1636 26.7751C71.639 29.1938 74.1145 31.6333 76.5691 34.0727ZM70.8902 30.7236C70.4533 31.3025 69.9333 31.6953 69.9749 31.9847C70.0373 32.3362 70.5782 32.6256 70.911 32.9357C71.2022 32.6256 71.7015 32.3155 71.7223 31.9847C71.7639 31.6539 71.3062 31.2818 70.8902 30.7236Z" fill="white"/>
<path d="M58.638 32.7083C53.5624 31.9847 50.0885 35.3958 50.8165 40.378C50.5669 40.2127 50.3589 40.13 50.2133 39.9853C48.4659 38.2694 46.7394 36.5328 44.992 34.817C44.5136 34.3415 44.3888 34.0107 44.9504 33.4732C47.1554 31.3438 49.3396 29.1732 51.503 27.0025C52.0646 26.4236 52.4183 26.4029 53.0007 27.0025C54.6233 28.6977 56.329 30.3102 57.9931 31.964C58.1803 32.1294 58.3468 32.3568 58.638 32.7083ZM51.3782 32.0467C50.7957 31.5713 50.4213 31.0544 50.1509 31.0958C49.7764 31.1578 49.4644 31.6746 49.1316 31.9847C49.4436 32.2948 49.714 32.791 50.0677 32.853C50.3589 32.8943 50.7541 32.4395 51.3782 32.0467Z" fill="white"/>
<path d="M50.5461 24.6045C50.8581 24.8732 51.191 25.142 51.4822 25.4107C48.7572 28.1189 46.1777 30.6617 43.4735 33.3286C43.2447 33.0185 42.9743 32.6671 42.8079 32.4396C45.3457 29.8762 47.9251 27.2713 50.5461 24.6045Z" fill="white"/>
<path d="M80.0638 30.6616C79.7309 31.0957 79.4813 31.4058 79.1693 31.8193C78.6909 31.3645 78.3372 31.0544 78.0044 30.7236C75.9242 28.6563 73.8648 26.5889 71.7639 24.5423C71.327 24.1288 71.2438 23.8187 71.7223 23.3639C72.1383 22.9505 72.4503 22.9711 72.8456 23.3639C75.1754 25.7 77.526 28.0154 79.8765 30.3515C79.9598 30.4135 80.0014 30.5582 80.0638 30.6616Z" fill="white"/>
<path d="M78.3997 32.3154C77.4636 33.5765 77.4428 33.5765 76.4859 32.6255C74.3849 30.5375 72.2839 28.4289 70.1622 26.3615C69.7461 25.9687 69.4549 25.638 69.9749 25.0798C70.5158 24.5009 70.8486 24.811 71.2439 25.2038C73.6153 27.5813 75.9866 29.9173 78.3997 32.3154Z" fill="white"/>
<path d="M49.6725 23.8396C47.0514 26.4237 44.472 28.9458 41.8718 31.5093C40.7069 30.8478 40.6861 30.7237 41.6638 29.7521C43.7024 27.7261 45.7409 25.7208 47.7587 23.6948C48.7572 22.7025 48.7572 22.7025 49.6725 23.8396Z" fill="white"/>
<path d="M70.8902 30.7236C71.2855 31.3025 71.7431 31.6539 71.7223 31.9847C71.7015 32.3155 71.2022 32.6256 70.911 32.9357C70.5782 32.6256 70.0373 32.3568 69.9749 31.9847C69.9333 31.6953 70.4534 31.3025 70.8902 30.7236Z" fill="white"/>
<path d="M51.3782 32.0469C50.7541 32.4397 50.3797 32.8945 50.0469 32.8325C49.6932 32.7912 49.4228 32.2743 49.1108 31.9642C49.4436 31.6541 49.7556 31.1373 50.1301 31.0753C50.4213 31.0546 50.7957 31.5921 51.3782 32.0469Z" fill="white"/>
<path d="M7.89717 57.1622C7.89717 57.7864 7.74592 58.329 7.44341 58.79C7.14091 59.2509 6.69915 59.6063 6.11815 59.8559C5.54195 60.1056 4.84091 60.2305 4.01503 60.2305C3.6501 60.2305 3.29238 60.2065 2.94185 60.1585C2.59613 60.1104 2.26242 60.0408 1.94071 59.9496C1.6238 59.8535 1.32129 59.7359 1.03319 59.5967V57.5223C1.53257 57.7432 2.05115 57.9425 2.58893 58.1201C3.12672 58.2978 3.6597 58.3866 4.18789 58.3866C4.55281 58.3866 4.84571 58.3386 5.06659 58.2426C5.29227 58.1466 5.45552 58.0145 5.55636 57.8465C5.65719 57.6784 5.70761 57.4863 5.70761 57.2703C5.70761 57.0062 5.61878 56.7805 5.44112 56.5932C5.26346 56.406 5.01857 56.2307 4.70646 56.0674C4.39916 55.9042 4.05104 55.7289 3.6621 55.5417C3.41722 55.4264 3.15073 55.2872 2.86263 55.1239C2.57453 54.9559 2.30083 54.7518 2.04154 54.5117C1.78225 54.2716 1.56858 53.9811 1.40052 53.6402C1.23726 53.2945 1.15564 52.8815 1.15564 52.4014C1.15564 51.7723 1.29969 51.2346 1.58779 50.788C1.87589 50.3415 2.28643 50.0005 2.81941 49.7653C3.3572 49.5252 3.99102 49.4051 4.72087 49.4051C5.26826 49.4051 5.78924 49.47 6.28381 49.5996C6.78318 49.7244 7.30416 49.9069 7.84675 50.147L7.1265 51.8828C6.64153 51.6859 6.20698 51.5347 5.82285 51.429C5.43872 51.3186 5.04738 51.2634 4.64884 51.2634C4.37035 51.2634 4.13267 51.309 3.9358 51.4002C3.73893 51.4866 3.59008 51.6115 3.48924 51.7747C3.38841 51.9332 3.33799 52.1181 3.33799 52.3293C3.33799 52.579 3.41002 52.7903 3.55407 52.9632C3.70292 53.1312 3.92379 53.2945 4.2167 53.4529C4.5144 53.6114 4.88413 53.7962 5.32588 54.0075C5.86367 54.262 6.32222 54.5285 6.70156 54.807C7.08569 55.0807 7.38099 55.4048 7.58746 55.7793C7.79393 56.1491 7.89717 56.61 7.89717 57.1622ZM14.2066 51.8828C15.066 51.8828 15.7575 52.1181 16.2809 52.5886C16.8043 53.0544 17.0659 53.8035 17.0659 54.8358V60.0864H14.8692V55.3832C14.8692 54.807 14.7635 54.3724 14.5523 54.0795C14.3458 53.7866 14.0193 53.6402 13.5727 53.6402C12.9005 53.6402 12.4419 53.8683 12.1971 54.3244C11.9522 54.7806 11.8297 55.4384 11.8297 56.2979V60.0864H9.63297V52.034H11.3112L11.6065 53.064H11.7289C11.9018 52.7855 12.1154 52.5598 12.3699 52.387C12.6292 52.2141 12.9149 52.0869 13.227 52.0052C13.5439 51.9236 13.8704 51.8828 14.2066 51.8828ZM26.6453 56.0458C26.6453 56.7181 26.554 57.3135 26.3716 57.832C26.1939 58.3506 25.9322 58.79 25.5865 59.1501C25.2456 59.5054 24.8326 59.7743 24.3477 59.9568C23.8675 60.1392 23.3249 60.2305 22.7199 60.2305C22.1533 60.2305 21.6323 60.1392 21.157 59.9568C20.6864 59.7743 20.2759 59.5054 19.9253 59.1501C19.5796 58.79 19.3107 58.3506 19.1187 57.832C18.9314 57.3135 18.8378 56.7181 18.8378 56.0458C18.8378 55.1527 18.9962 54.3965 19.3131 53.777C19.63 53.1576 20.0814 52.6871 20.6672 52.3654C21.253 52.0436 21.9516 51.8828 22.7631 51.8828C23.517 51.8828 24.1844 52.0436 24.7654 52.3654C25.3512 52.6871 25.8098 53.1576 26.1411 53.777C26.4772 54.3965 26.6453 55.1527 26.6453 56.0458ZM21.0777 56.0458C21.0777 56.574 21.1353 57.0182 21.2506 57.3783C21.3658 57.7384 21.5459 58.0097 21.7908 58.1922C22.0357 58.3746 22.355 58.4659 22.7487 58.4659C23.1376 58.4659 23.4522 58.3746 23.6922 58.1922C23.9371 58.0097 24.1148 57.7384 24.2252 57.3783C24.3405 57.0182 24.3981 56.574 24.3981 56.0458C24.3981 55.5128 24.3405 55.0711 24.2252 54.7206C24.1148 54.3652 23.9371 54.0988 23.6922 53.9211C23.4473 53.7434 23.128 53.6546 22.7343 53.6546C22.1533 53.6546 21.7308 53.8539 21.4667 54.2524C21.2074 54.6509 21.0777 55.2488 21.0777 56.0458ZM35.0794 60.0864L34.46 57.2703C34.4264 57.1022 34.3711 56.8549 34.2943 56.5284C34.2175 56.1971 34.1335 55.8442 34.0422 55.4696C33.9558 55.0903 33.8742 54.7398 33.7973 54.4181C33.7253 54.0964 33.6725 53.8611 33.6389 53.7122H33.5741C33.5404 53.8611 33.4876 54.0964 33.4156 54.4181C33.3436 54.7398 33.2619 55.0903 33.1707 55.4696C33.0843 55.849 33.0027 56.2067 32.9258 56.5428C32.849 56.8741 32.7914 57.1262 32.753 57.2991L32.1047 60.0864H29.7423L27.4519 52.034H29.6415L30.5706 55.5993C30.633 55.849 30.6931 56.1467 30.7507 56.4924C30.8083 56.8333 30.8587 57.1646 30.9019 57.4863C30.9499 57.8032 30.986 58.0553 31.01 58.2426H31.0676C31.0772 58.1033 31.0964 57.9185 31.1252 57.688C31.1588 57.4575 31.1948 57.2198 31.2332 56.9749C31.2765 56.7253 31.3149 56.502 31.3485 56.3051C31.3869 56.1034 31.4157 55.9666 31.4349 55.8946L32.4289 52.034H34.8489L35.7924 55.8946C35.826 56.0338 35.8693 56.2547 35.9221 56.5572C35.9797 56.8597 36.0301 57.1718 36.0733 57.4935C36.1165 57.8104 36.1405 58.0601 36.1453 58.2426H36.203C36.2222 58.0793 36.2558 57.8368 36.3038 57.5151C36.3518 57.1934 36.407 56.8573 36.4695 56.5068C36.5367 56.1515 36.6039 55.849 36.6711 55.5993L37.6363 52.034H39.7898L37.4706 60.0864H35.0794ZM39.9411 52.034H42.3467L43.8664 56.5644C43.9144 56.7085 43.9552 56.8549 43.9889 57.0038C44.0225 57.1526 44.0513 57.3063 44.0753 57.4647C44.0993 57.6232 44.1185 57.7888 44.1329 57.9617H44.1761C44.2049 57.7024 44.2433 57.4599 44.2914 57.2342C44.3442 57.0086 44.409 56.7853 44.4858 56.5644L45.9767 52.034H48.332L44.9252 61.1164C44.7187 61.6734 44.4498 62.1367 44.1185 62.5065C43.7872 62.881 43.4055 63.1619 42.9733 63.3492C42.546 63.5364 42.0754 63.6301 41.5616 63.6301C41.3119 63.6301 41.0959 63.6156 40.9134 63.5868C40.7309 63.5628 40.5749 63.5364 40.4452 63.5076V61.7646C40.5461 61.7886 40.6733 61.8102 40.827 61.8294C40.9806 61.8486 41.1415 61.8582 41.3095 61.8582C41.6168 61.8582 41.8809 61.7934 42.1018 61.6638C42.3227 61.5341 42.5075 61.3589 42.6564 61.138C42.8053 60.9219 42.9229 60.6842 43.0093 60.4249L43.139 60.0288L39.9411 52.034ZM57.9689 51.2634C57.5415 51.2634 57.1622 51.3474 56.8309 51.5155C56.5044 51.6787 56.2283 51.9164 56.0026 52.2285C55.7817 52.5406 55.6137 52.9175 55.4984 53.3593C55.3832 53.8011 55.3256 54.298 55.3256 54.8502C55.3256 55.5945 55.4168 56.2307 55.5993 56.7589C55.7865 57.2823 56.0746 57.6832 56.4636 57.9617C56.8525 58.2354 57.3543 58.3722 57.9689 58.3722C58.3962 58.3722 58.8236 58.3242 59.2509 58.2282C59.6831 58.1321 60.1513 57.9953 60.6554 57.8176V59.6903C60.1897 59.8824 59.7311 60.0192 59.2798 60.1008C58.8284 60.1873 58.3218 60.2305 57.76 60.2305C56.6748 60.2305 55.7817 60.0072 55.0807 59.5606C54.3845 59.1093 53.8683 58.4803 53.5322 57.6736C53.196 56.8621 53.028 55.9162 53.028 54.8358C53.028 54.0387 53.136 53.3089 53.3521 52.6463C53.5682 51.9836 53.8851 51.4098 54.3028 50.9249C54.7206 50.4399 55.2368 50.0654 55.8514 49.8013C56.466 49.5372 57.1718 49.4051 57.9689 49.4051C58.4923 49.4051 59.0157 49.4724 59.539 49.6068C60.0672 49.7364 60.5714 49.9165 61.0516 50.147L60.3313 51.962C59.9376 51.7747 59.5414 51.6115 59.1429 51.4722C58.7444 51.333 58.353 51.2634 57.9689 51.2634ZM66.0285 51.8684C67.1089 51.8684 67.9371 52.1037 68.5133 52.5742C69.0895 53.0448 69.3776 53.7602 69.3776 54.7206V60.0864H67.8435L67.4186 58.9916H67.3609C67.1305 59.2797 66.8952 59.515 66.6551 59.6975C66.415 59.88 66.1389 60.0144 65.8268 60.1008C65.5147 60.1873 65.1354 60.2305 64.6888 60.2305C64.2135 60.2305 63.7861 60.1392 63.4068 59.9568C63.0323 59.7743 62.7369 59.4958 62.5209 59.1213C62.3048 58.742 62.1968 58.2618 62.1968 57.6808C62.1968 56.8261 62.4969 56.1971 63.0971 55.7937C63.6973 55.3856 64.5976 55.1599 65.798 55.1167L67.1953 55.0735V54.7206C67.1953 54.298 67.0849 53.9883 66.864 53.7914C66.6431 53.5946 66.3358 53.4961 65.9421 53.4961C65.5531 53.4961 65.1714 53.5514 64.7969 53.6618C64.4223 53.7722 64.0478 53.9115 63.6733 54.0795L62.9458 52.5958C63.3732 52.3702 63.8509 52.1925 64.3791 52.0628C64.9121 51.9332 65.4619 51.8684 66.0285 51.8684ZM67.1953 56.3555L66.3454 56.3843C65.6348 56.4036 65.1402 56.5308 64.8617 56.7661C64.588 57.0014 64.4511 57.3111 64.4511 57.6952C64.4511 58.0313 64.5496 58.2714 64.7464 58.4154C64.9433 58.5547 65.2002 58.6243 65.5171 58.6243C65.9877 58.6243 66.3838 58.4851 66.7055 58.2066C67.032 57.9281 67.1953 57.5319 67.1953 57.0182V56.3555ZM76.1408 51.8828C76.2512 51.8828 76.3785 51.89 76.5225 51.9044C76.6714 51.914 76.7914 51.9284 76.8826 51.9476L76.717 54.0075C76.645 53.9835 76.5417 53.9667 76.4073 53.9571C76.2776 53.9427 76.1648 53.9355 76.0688 53.9355C75.7855 53.9355 75.5094 53.9715 75.2405 54.0435C74.9764 54.1156 74.7387 54.2332 74.5274 54.3965C74.3162 54.5549 74.1481 54.7662 74.0233 55.0303C73.9032 55.2896 73.8432 55.6089 73.8432 55.9882V60.0864H71.6464V52.034H73.3102L73.6343 53.3881H73.7424C73.9008 53.1144 74.0977 52.8647 74.333 52.639C74.573 52.4086 74.8443 52.2261 75.1468 52.0917C75.4542 51.9524 75.7855 51.8828 76.1408 51.8828ZM81.6651 51.8828C82.4094 51.8828 83.0504 52.0268 83.5882 52.3149C84.126 52.5982 84.5413 53.0112 84.8342 53.5538C85.1271 54.0964 85.2735 54.759 85.2735 55.5417V56.6076H80.0806C80.1046 57.227 80.2894 57.7144 80.6351 58.0697C80.9857 58.4202 81.4706 58.5955 82.09 58.5955C82.6038 58.5955 83.0744 58.5427 83.5017 58.4371C83.9291 58.3314 84.3684 58.173 84.8198 57.9617V59.6615C84.4213 59.8583 84.0035 60.0024 83.5666 60.0936C83.1344 60.1849 82.6086 60.2305 81.9892 60.2305C81.1825 60.2305 80.4671 60.0816 79.8429 59.7839C79.2235 59.4862 78.7361 59.0325 78.3808 58.4226C78.0302 57.8128 77.855 57.0446 77.855 56.1179C77.855 55.1767 78.0134 54.3941 78.3303 53.7698C78.6521 53.1408 79.0986 52.6703 79.67 52.3582C80.2414 52.0412 80.9064 51.8828 81.6651 51.8828ZM81.6795 53.4457C81.2522 53.4457 80.8968 53.5826 80.6135 53.8563C80.335 54.13 80.1742 54.5597 80.131 55.1455H83.2136C83.2088 54.819 83.1488 54.5285 83.0336 54.274C82.9231 54.0195 82.7551 53.8179 82.5294 53.669C82.3085 53.5202 82.0252 53.4457 81.6795 53.4457ZM91.7054 51.2634C91.278 51.2634 90.8987 51.3474 90.5674 51.5155C90.2409 51.6787 89.9648 51.9164 89.7391 52.2285C89.5182 52.5406 89.3502 52.9175 89.2349 53.3593C89.1197 53.8011 89.0621 54.298 89.0621 54.8502C89.0621 55.5945 89.1533 56.2307 89.3358 56.7589C89.523 57.2823 89.8111 57.6832 90.2 57.9617C90.589 58.2354 91.0908 58.3722 91.7054 58.3722C92.1327 58.3722 92.5601 58.3242 92.9874 58.2282C93.4196 58.1321 93.8877 57.9953 94.3919 57.8176V59.6903C93.9261 59.8824 93.4676 60.0192 93.0162 60.1008C92.5649 60.1873 92.0583 60.2305 91.4965 60.2305C90.4113 60.2305 89.5182 60.0072 88.8172 59.5606C88.1209 59.1093 87.6048 58.4803 87.2686 57.6736C86.9325 56.8621 86.7645 55.9162 86.7645 54.8358C86.7645 54.0387 86.8725 53.3089 87.0886 52.6463C87.3046 51.9836 87.6216 51.4098 88.0393 50.9249C88.457 50.4399 88.9732 50.0654 89.5878 49.8013C90.2025 49.5372 90.9083 49.4051 91.7054 49.4051C92.2288 49.4051 92.7521 49.4724 93.2755 49.6068C93.8037 49.7364 94.3079 49.9165 94.788 50.147L94.0678 51.962C93.6741 51.7747 93.2779 51.6115 92.8794 51.4722C92.4808 51.333 92.0895 51.2634 91.7054 51.2634ZM99.765 51.8684C100.845 51.8684 101.674 52.1037 102.25 52.5742C102.826 53.0448 103.114 53.7602 103.114 54.7206V60.0864H101.58L101.155 58.9916H101.097C100.867 59.2797 100.632 59.515 100.392 59.6975C100.152 59.88 99.8754 60.0144 99.5633 60.1008C99.2512 60.1873 98.8719 60.2305 98.4253 60.2305C97.9499 60.2305 97.5226 60.1392 97.1433 59.9568C96.7687 59.7743 96.4734 59.4958 96.2574 59.1213C96.0413 58.742 95.9332 58.2618 95.9332 57.6808C95.9332 56.8261 96.2333 56.1971 96.8336 55.7937C97.4338 55.3856 98.3341 55.1599 99.5345 55.1167L100.932 55.0735V54.7206C100.932 54.298 100.821 53.9883 100.6 53.7914C100.38 53.5946 100.072 53.4961 99.6785 53.4961C99.2896 53.4961 98.9079 53.5514 98.5333 53.6618C98.1588 53.7722 97.7843 53.9115 97.4098 54.0795L96.6823 52.5958C97.1096 52.3702 97.5874 52.1925 98.1156 52.0628C98.6486 51.9332 99.1984 51.8684 99.765 51.8684ZM100.932 56.3555L100.082 56.3843C99.3712 56.4036 98.8767 56.5308 98.5982 56.7661C98.3245 57.0014 98.1876 57.3111 98.1876 57.6952C98.1876 58.0313 98.2861 58.2714 98.4829 58.4154C98.6798 58.5547 98.9367 58.6243 99.2536 58.6243C99.7242 58.6243 100.12 58.4851 100.442 58.2066C100.769 57.9281 100.932 57.5319 100.932 57.0182V56.3555ZM109.877 51.8828C109.988 51.8828 110.115 51.89 110.259 51.9044C110.408 51.914 110.528 51.9284 110.619 51.9476L110.453 54.0075C110.381 53.9835 110.278 53.9667 110.144 53.9571C110.014 53.9427 109.901 53.9355 109.805 53.9355C109.522 53.9355 109.246 53.9715 108.977 54.0435C108.713 54.1156 108.475 54.2332 108.264 54.3965C108.053 54.5549 107.885 54.7662 107.76 55.0303C107.64 55.2896 107.58 55.6089 107.58 55.9882V60.0864H105.383V52.034H107.047L107.371 53.3881H107.479C107.637 53.1144 107.834 52.8647 108.069 52.639C108.31 52.4086 108.581 52.2261 108.883 52.0917C109.191 51.9524 109.522 51.8828 109.877 51.8828ZM115.402 51.8828C116.146 51.8828 116.787 52.0268 117.325 52.3149C117.862 52.5982 118.278 53.0112 118.571 53.5538C118.864 54.0964 119.01 54.759 119.01 55.5417V56.6076H113.817C113.841 57.227 114.026 57.7144 114.372 58.0697C114.722 58.4202 115.207 58.5955 115.827 58.5955C116.34 58.5955 116.811 58.5427 117.238 58.4371C117.666 58.3314 118.105 58.173 118.556 57.9617V59.6615C118.158 59.8583 117.74 60.0024 117.303 60.0936C116.871 60.1849 116.345 60.2305 115.726 60.2305C114.919 60.2305 114.204 60.0816 113.579 59.7839C112.96 59.4862 112.473 59.0325 112.117 58.4226C111.767 57.8128 111.591 57.0446 111.591 56.1179C111.591 55.1767 111.75 54.3941 112.067 53.7698C112.389 53.1408 112.835 52.6703 113.406 52.3582C113.978 52.0412 114.643 51.8828 115.402 51.8828ZM115.416 53.4457C114.989 53.4457 114.633 53.5826 114.35 53.8563C114.072 54.13 113.911 54.5597 113.867 55.1455H116.95C116.945 54.819 116.885 54.5285 116.77 54.274C116.66 54.0195 116.492 53.8179 116.266 53.669C116.045 53.5202 115.762 53.4457 115.416 53.4457Z" fill="white"/>
</svg>
